<?xml version="1.0" standalone="no"?><!DOCTYPE svg PUBLIC "-//W3C//DTD SVG 1.1//EN" "http://www.w3.org/Graphics/SVG/1.1/DTD/svg11.dtd"><svg t="1631112969267" class="icon" viewBox="0 0 1051 1024" version="1.1" xmlns="http://www.w3.org/2000/svg" p-id="2208" xmlns:xlink="http://www.w3.org/1999/xlink" width="615.8203125" height="600"><defs><style type="text/css"></style></defs><path d="M333.991225 375.365286v-37.265468a299.575092 299.575092 0 0 0-39.698609-2.870679C132.083247 335.229139 0 465.007306 0 624.356667c0 97.720473 49.751321 184.257037 125.669574 236.633589a285.125653 285.125653 0 0 1-79.077067-196.796248c0-157.086968 128.294805-285.189683 287.398718-288.828722" fill="#20f4f2" p-id="2209"></path><path d="M340.92781 796.223897c72.417946 0 131.453619-56.559846 134.185566-127.056892l0.234777-629.318993h117.057537A214.297785 214.297785 0 0 1 588.627919 0H428.755646l-0.288135 629.318993c-2.678589 70.46503-61.70359 127.11025-134.110865 127.11025a135.402136 135.402136 0 0 1-62.375905-15.164442 134.932583 134.932583 0 0 0 108.968412 55.012454m470.15105-542.846459v-34.97106a224.009004 224.009004 0 0 1-121.16613-35.397926 223.390047 223.390047 0 0 0 121.16613 70.368986" fill="#20f4f2" p-id="2210"></path><path d="M689.934073 183.06181a215.236892 215.236892 0 0 1-54.67096-143.213798h-42.857423a218.769215 218.769215 0 0 0 97.581742 143.213798M294.356646 492.369465c-74.146756 0-134.46303 59.217091-134.463029 132.029889 0 50.658413 29.28306 94.711062 72.044437 116.812089a129.564733 129.564733 0 0 1-25.45193-77.017435c0-72.759439 60.273587-132.029889 134.463029-132.029889a134.292283 134.292283 0 0 1 39.698609 6.125538V377.990516a299.254942 299.254942 0 0 0-39.698609-2.81732c-2.347767 0-4.642176 0.096045-6.936585 0.19209v123.076359a134.665791 134.665791 0 0 0-39.698608-6.07218" fill="#fd1a52" p-id="2211"></path><path d="M811.057517 253.377437v122.126581a385.076505 385.076505 0 0 1-222.429598-70.315628v319.082904c0 159.413392-132.061904 289.031484-294.335303 289.031483a296.29889 296.29889 0 0 1-168.6764-52.387223 295.97874 295.97874 0 0 0 215.268907 92.299265c162.305414 0 294.324631-129.682122 294.324632-289.07417v-319.082903a385.012475 385.012475 0 0 0 222.440268 70.219582V258.265062a226.644906 226.644906 0 0 1-46.592506-4.887625" fill="#fd1a52" p-id="2212"></path><path d="M588.627919 624.345996v-319.082904a385.033818 385.033818 0 0 0 222.429598 70.219582V253.430796a223.379376 223.379376 0 0 1-121.123444-70.326299 218.705185 218.705185 0 0 1-97.528383-143.256485H475.348153l-0.234777 629.318993c-2.731947 70.433015-61.76762 127.056891-134.185566 127.056892a134.97527 134.97527 0 0 1-108.968412-55.012454 131.795112 131.795112 0 0 1-72.065781-116.865447c0-72.759439 60.273587-132.019217 134.463029-132.019218a135.732958 135.732958 0 0 1 39.655922 6.114867V375.365286C174.908655 378.993653 46.61385 507.096368 46.61385 664.194008a285.104309 285.104309 0 0 0 79.055724 196.817591 296.320233 296.320233 0 0 0 168.687072 52.408567c162.209369 0 294.292616-129.639435 294.292617-289.020812" fill="#231916" p-id="2213"></path></svg>